<mxfile host="app.diagrams.net" modified="2022-06-14T02:53:57.777Z" agent="5.0 (Windows NT 10.0; Win64; x64) AppleWebKit/537.36 (KHTML, like Gecko) Chrome/102.0.5005.115 Safari/537.36" etag="Rickl4Nvpc33nL2tHQwt" version="20.0.1" type="github">
  <diagram id="C5RBs43oDa-KdzZeNtuy" name="Page-1">
    <mxGraphModel dx="4194" dy="1116" grid="1" gridSize="10" guides="1" tooltips="1" connect="1" arrows="1" fold="1" page="1" pageScale="1" pageWidth="827" pageHeight="1169" math="0" shadow="0">
      <root>
        <mxCell id="WIyWlLk6GJQsqaUBKTNV-0" />
        <mxCell id="WIyWlLk6GJQsqaUBKTNV-1" parent="WIyWlLk6GJQsqaUBKTNV-0" />
        <UserObject label="Inicializa, i=0, Tiempo llegada (0)=0; Tiempo fin (0)=0" lucidchartObjectId="gdcp~yhQB.1v" id="li2oKDahV1QLZ2siG3hr-0">
          <mxCell style="html=1;overflow=block;blockSpacing=1;whiteSpace=wrap;fontSize=16;fontColor=default;align=center;spacing=3.8;strokeColor=#5e5e5e;strokeOpacity=100;rounded=1;absoluteArcSize=1;arcSize=9;strokeWidth=2.3;" vertex="1" parent="WIyWlLk6GJQsqaUBKTNV-1">
            <mxGeometry x="-1275" y="525" width="495" height="46" as="geometry" />
          </mxCell>
        </UserObject>
        <UserObject label="Nuevo estudiante i=i+1" lucidchartObjectId="G-fpVbHp6Do1" id="li2oKDahV1QLZ2siG3hr-1">
          <mxCell style="html=1;overflow=block;blockSpacing=1;whiteSpace=wrap;fontSize=16;fontColor=default;align=center;spacing=3.8;strokeColor=#5e5e5e;strokeOpacity=100;rounded=1;absoluteArcSize=1;arcSize=9;strokeWidth=2.3;" vertex="1" parent="WIyWlLk6GJQsqaUBKTNV-1">
            <mxGeometry x="-1147" y="615" width="225" height="46" as="geometry" />
          </mxCell>
        </UserObject>
        <UserObject label="" lucidchartObjectId="W_fpiKU5.p0g" id="li2oKDahV1QLZ2siG3hr-2">
          <mxCell style="html=1;jettySize=18;whiteSpace=wrap;fontSize=13;strokeColor=#5E5E5E;strokeWidth=1.5;rounded=1;arcSize=12;edgeStyle=orthogonalEdgeStyle;startArrow=none;endArrow=block;endFill=1;exitX=0.487;exitY=1.024;exitPerimeter=0;entryX=0.5;entryY=-0.024;entryPerimeter=0;" edge="1" parent="WIyWlLk6GJQsqaUBKTNV-1" source="li2oKDahV1QLZ2siG3hr-0" target="li2oKDahV1QLZ2siG3hr-1">
            <mxGeometry width="100" height="100" relative="1" as="geometry">
              <Array as="points" />
            </mxGeometry>
          </mxCell>
        </UserObject>
        <UserObject label="Generar el tiempo entre llegadas de cada estudiante" lucidchartObjectId="B.fpPtDF.61_" id="li2oKDahV1QLZ2siG3hr-3">
          <mxCell style="html=1;overflow=block;blockSpacing=1;whiteSpace=wrap;fontSize=16;fontColor=default;align=center;spacing=3.8;strokeColor=#5e5e5e;strokeOpacity=100;rounded=1;absoluteArcSize=1;arcSize=9;strokeWidth=2.3;" vertex="1" parent="WIyWlLk6GJQsqaUBKTNV-1">
            <mxGeometry x="-1282" y="705" width="495" height="46" as="geometry" />
          </mxCell>
        </UserObject>
        <UserObject label="" lucidchartObjectId="o~fpbzlE1Ghg" id="li2oKDahV1QLZ2siG3hr-4">
          <mxCell style="html=1;jettySize=18;whiteSpace=wrap;fontSize=13;strokeColor=#5E5E5E;strokeWidth=1.5;rounded=1;arcSize=12;edgeStyle=orthogonalEdgeStyle;startArrow=none;endArrow=block;endFill=1;exitX=0.5;exitY=1.024;exitPerimeter=0;entryX=0.5;entryY=-0.024;entryPerimeter=0;" edge="1" parent="WIyWlLk6GJQsqaUBKTNV-1" source="li2oKDahV1QLZ2siG3hr-1" target="li2oKDahV1QLZ2siG3hr-3">
            <mxGeometry width="100" height="100" relative="1" as="geometry">
              <Array as="points" />
            </mxGeometry>
          </mxCell>
        </UserObject>
        <UserObject label="Tiempo de llegada i= Tiempo de llegada (i-1) + Tiempo de llegada" lucidchartObjectId="~~fpsXmovYT-" id="li2oKDahV1QLZ2siG3hr-5">
          <mxCell style="html=1;overflow=block;blockSpacing=1;whiteSpace=wrap;fontSize=16;fontColor=default;align=center;spacing=3.8;strokeColor=#5e5e5e;strokeOpacity=100;rounded=1;absoluteArcSize=1;arcSize=9;strokeWidth=2.3;" vertex="1" parent="WIyWlLk6GJQsqaUBKTNV-1">
            <mxGeometry x="-1284" y="795" width="495" height="46" as="geometry" />
          </mxCell>
        </UserObject>
        <UserObject label="" lucidchartObjectId="Vagpnf9WxB.j" id="li2oKDahV1QLZ2siG3hr-6">
          <mxCell style="html=1;jettySize=18;whiteSpace=wrap;fontSize=13;strokeColor=#5E5E5E;strokeWidth=1.5;rounded=1;arcSize=12;edgeStyle=orthogonalEdgeStyle;startArrow=none;endArrow=block;endFill=1;exitX=0.5;exitY=1.024;exitPerimeter=0;entryX=0.5;entryY=-0.024;entryPerimeter=0;" edge="1" parent="WIyWlLk6GJQsqaUBKTNV-1" source="li2oKDahV1QLZ2siG3hr-3" target="li2oKDahV1QLZ2siG3hr-5">
            <mxGeometry width="100" height="100" relative="1" as="geometry">
              <Array as="points" />
            </mxGeometry>
          </mxCell>
        </UserObject>
        <UserObject label="Es mayor el tiempo de llegada i que tiempo fin(i-1)" lucidchartObjectId="~agpvJ8Wr7tH" id="li2oKDahV1QLZ2siG3hr-7">
          <mxCell style="html=1;overflow=block;blockSpacing=1;whiteSpace=wrap;rhombus;fontSize=16.7;fontColor=#333333;align=center;spacing=3.8;strokeColor=#5e5e5e;strokeOpacity=100;rounded=1;absoluteArcSize=1;arcSize=9;strokeWidth=2.3;" vertex="1" parent="WIyWlLk6GJQsqaUBKTNV-1">
            <mxGeometry x="-1246" y="900" width="419" height="90" as="geometry" />
          </mxCell>
        </UserObject>
        <UserObject label="" lucidchartObjectId="hbgp5MEXE1px" id="li2oKDahV1QLZ2siG3hr-8">
          <mxCell style="html=1;jettySize=18;whiteSpace=wrap;fontSize=13;strokeColor=#5E5E5E;strokeWidth=1.5;rounded=1;arcSize=12;edgeStyle=orthogonalEdgeStyle;startArrow=none;endArrow=block;endFill=1;exitX=0.5;exitY=1.024;exitPerimeter=0;entryX=0.5;entryY=0;entryDx=0;entryDy=0;" edge="1" parent="WIyWlLk6GJQsqaUBKTNV-1" source="li2oKDahV1QLZ2siG3hr-5" target="li2oKDahV1QLZ2siG3hr-7">
            <mxGeometry width="100" height="100" relative="1" as="geometry">
              <Array as="points" />
              <mxPoint x="-650" y="842" as="targetPoint" />
            </mxGeometry>
          </mxCell>
        </UserObject>
        <UserObject label="" lucidchartObjectId="1egpgban3LZf" id="li2oKDahV1QLZ2siG3hr-10">
          <mxCell style="html=1;jettySize=18;whiteSpace=wrap;fontSize=13.3;fontColor=#333333;fontStyle=1;align=center;strokeColor=#5E5E5E;strokeWidth=1.5;rounded=1;arcSize=12;edgeStyle=orthogonalEdgeStyle;startArrow=none;endArrow=block;endFill=1;exitX=0.994;exitY=0.5;exitPerimeter=0;" edge="1" parent="WIyWlLk6GJQsqaUBKTNV-1" source="li2oKDahV1QLZ2siG3hr-7" target="li2oKDahV1QLZ2siG3hr-34">
            <mxGeometry width="100" height="100" relative="1" as="geometry">
              <Array as="points" />
              <mxPoint x="-738.5000000000005" y="1018.9200000000001" as="targetPoint" />
            </mxGeometry>
          </mxCell>
        </UserObject>
        <mxCell id="li2oKDahV1QLZ2siG3hr-11" value="&lt;font style=&quot;font-size: 16px;&quot;&gt;NO&lt;/font&gt;" style="text;html=1;resizable=0;labelBackgroundColor=default;align=center;verticalAlign=middle;fontStyle=1;fontColor=#333333;fontSize=13.3;" vertex="1" parent="li2oKDahV1QLZ2siG3hr-10">
          <mxGeometry relative="1" as="geometry" />
        </mxCell>
        <UserObject label="Cajero libre, Tiempo inicio i = Tiempo llegada i" lucidchartObjectId="_egp2xHE6SLR" id="li2oKDahV1QLZ2siG3hr-12">
          <mxCell style="html=1;overflow=block;blockSpacing=1;whiteSpace=wrap;fontSize=16;fontColor=default;align=center;spacing=3.8;strokeColor=#5e5e5e;strokeOpacity=100;rounded=1;absoluteArcSize=1;arcSize=9;strokeWidth=2.3;" vertex="1" parent="WIyWlLk6GJQsqaUBKTNV-1">
            <mxGeometry x="-1600" y="1030" width="495" height="46" as="geometry" />
          </mxCell>
        </UserObject>
        <UserObject label="" lucidchartObjectId="bfgpPE_oOFU7" id="li2oKDahV1QLZ2siG3hr-13">
          <mxCell style="html=1;jettySize=18;whiteSpace=wrap;fontSize=13.3;fontColor=#333333;fontStyle=1;align=center;strokeColor=#5E5E5E;strokeWidth=1.5;rounded=1;arcSize=12;edgeStyle=orthogonalEdgeStyle;startArrow=none;endArrow=block;endFill=1;exitX=0.006;exitY=0.5;exitPerimeter=0;entryX=0.5;entryY=-0.024;entryPerimeter=0;" edge="1" parent="WIyWlLk6GJQsqaUBKTNV-1" source="li2oKDahV1QLZ2siG3hr-7" target="li2oKDahV1QLZ2siG3hr-12">
            <mxGeometry width="100" height="100" relative="1" as="geometry">
              <Array as="points">
                <mxPoint x="-1352" y="945" />
              </Array>
            </mxGeometry>
          </mxCell>
        </UserObject>
        <mxCell id="li2oKDahV1QLZ2siG3hr-14" value="&lt;font style=&quot;font-size: 16px;&quot;&gt;SI&lt;/font&gt;" style="text;html=1;resizable=0;labelBackgroundColor=default;align=center;verticalAlign=middle;fontStyle=1;fontColor=#333333;fontSize=13.3;" vertex="1" parent="li2oKDahV1QLZ2siG3hr-13">
          <mxGeometry relative="1" as="geometry" />
        </mxCell>
        <UserObject label="Tiempo espera i = Tiempo inicio i - Tiempo llegada i" lucidchartObjectId="vhgpPyA_Y1Rw" id="li2oKDahV1QLZ2siG3hr-15">
          <mxCell style="html=1;overflow=block;blockSpacing=1;whiteSpace=wrap;fontSize=16;fontColor=default;align=center;spacing=3.8;strokeColor=#5e5e5e;strokeOpacity=100;rounded=1;absoluteArcSize=1;arcSize=9;strokeWidth=2.3;" vertex="1" parent="WIyWlLk6GJQsqaUBKTNV-1">
            <mxGeometry x="-1240" y="1370" width="409" height="46" as="geometry" />
          </mxCell>
        </UserObject>
        <UserObject label="" lucidchartObjectId="vigp_QnK41Ym" id="li2oKDahV1QLZ2siG3hr-16">
          <mxCell style="html=1;jettySize=18;whiteSpace=wrap;fontSize=13;strokeColor=#5E5E5E;strokeWidth=1.5;rounded=1;arcSize=12;edgeStyle=orthogonalEdgeStyle;startArrow=none;endArrow=block;endFill=1;exitX=0.5;exitY=1.024;exitPerimeter=0;entryX=0.5;entryY=-0.024;entryPerimeter=0;" edge="1" parent="WIyWlLk6GJQsqaUBKTNV-1" source="li2oKDahV1QLZ2siG3hr-12" target="li2oKDahV1QLZ2siG3hr-15">
            <mxGeometry width="100" height="100" relative="1" as="geometry">
              <Array as="points">
                <mxPoint x="-1372" y="1320" />
                <mxPoint x="-1035" y="1320" />
              </Array>
            </mxGeometry>
          </mxCell>
        </UserObject>
        <UserObject label="Generar el tiempo de servicio, se entiende como el tiempo desde que paga hasta que sale con su almuerzo" lucidchartObjectId="VigpPHDziVR4" id="li2oKDahV1QLZ2siG3hr-18">
          <mxCell style="html=1;overflow=block;blockSpacing=1;whiteSpace=wrap;fontSize=16;fontColor=default;align=center;spacing=3.8;strokeColor=#5e5e5e;strokeOpacity=100;rounded=1;absoluteArcSize=1;arcSize=9;strokeWidth=2.3;" vertex="1" parent="WIyWlLk6GJQsqaUBKTNV-1">
            <mxGeometry x="-1428.5" y="1450" width="784" height="65" as="geometry" />
          </mxCell>
        </UserObject>
        <UserObject label="" lucidchartObjectId="3igp3xA8hax9" id="li2oKDahV1QLZ2siG3hr-19">
          <mxCell style="html=1;jettySize=18;whiteSpace=wrap;fontSize=13;strokeColor=#5E5E5E;strokeWidth=1.5;rounded=1;arcSize=12;edgeStyle=orthogonalEdgeStyle;startArrow=none;endArrow=block;endFill=1;exitX=0.5;exitY=1.024;exitPerimeter=0;entryX=0.5;entryY=-0.017;entryPerimeter=0;" edge="1" parent="WIyWlLk6GJQsqaUBKTNV-1" source="li2oKDahV1QLZ2siG3hr-15" target="li2oKDahV1QLZ2siG3hr-18">
            <mxGeometry width="100" height="100" relative="1" as="geometry">
              <Array as="points" />
            </mxGeometry>
          </mxCell>
        </UserObject>
        <UserObject label="Tiempo fin i = Tiempo inicio i + Tiempo de servicio" lucidchartObjectId="-jgpNVMEJ9fi" id="li2oKDahV1QLZ2siG3hr-20">
          <mxCell style="html=1;overflow=block;blockSpacing=1;whiteSpace=wrap;fontSize=16;fontColor=default;align=center;spacing=3.8;strokeColor=#5e5e5e;strokeOpacity=100;rounded=1;absoluteArcSize=1;arcSize=9;strokeWidth=2.3;" vertex="1" parent="WIyWlLk6GJQsqaUBKTNV-1">
            <mxGeometry x="-1217" y="1690" width="367" height="45" as="geometry" />
          </mxCell>
        </UserObject>
        <UserObject label="" lucidchartObjectId="CkgpV98.G-Gm" id="li2oKDahV1QLZ2siG3hr-21">
          <mxCell style="html=1;jettySize=18;whiteSpace=wrap;fontSize=13;strokeColor=#5E5E5E;strokeWidth=1.5;rounded=1;arcSize=12;edgeStyle=orthogonalEdgeStyle;startArrow=none;endArrow=block;endFill=1;exitX=0.5;exitY=1.017;exitPerimeter=0;entryX=0.496;entryY=-0.024;entryPerimeter=0;" edge="1" parent="WIyWlLk6GJQsqaUBKTNV-1" source="li2oKDahV1QLZ2siG3hr-18" target="li2oKDahV1QLZ2siG3hr-20">
            <mxGeometry width="100" height="100" relative="1" as="geometry">
              <Array as="points" />
            </mxGeometry>
          </mxCell>
        </UserObject>
        <UserObject label="Tiempo sistema i = Tiempo fin i - Tiempo de llegada i" lucidchartObjectId="EkgpqkGPHB_5" id="li2oKDahV1QLZ2siG3hr-22">
          <mxCell style="html=1;overflow=block;blockSpacing=1;whiteSpace=wrap;fontSize=16;fontColor=default;align=center;spacing=3.8;strokeColor=#5e5e5e;strokeOpacity=100;rounded=1;absoluteArcSize=1;arcSize=9;strokeWidth=2.3;" vertex="1" parent="WIyWlLk6GJQsqaUBKTNV-1">
            <mxGeometry x="-1230" y="1880" width="393" height="42" as="geometry" />
          </mxCell>
        </UserObject>
        <UserObject label="" lucidchartObjectId="ImgpCgQwOXgs" id="li2oKDahV1QLZ2siG3hr-23">
          <mxCell style="html=1;jettySize=18;whiteSpace=wrap;fontSize=13;strokeColor=#5E5E5E;strokeWidth=1.5;rounded=1;arcSize=12;edgeStyle=orthogonalEdgeStyle;startArrow=none;endArrow=block;endFill=1;exitX=0.5;exitY=1.024;exitPerimeter=0;entryX=0.503;entryY=-0.026;entryPerimeter=0;" edge="1" parent="WIyWlLk6GJQsqaUBKTNV-1" source="li2oKDahV1QLZ2siG3hr-20" target="li2oKDahV1QLZ2siG3hr-22">
            <mxGeometry width="100" height="100" relative="1" as="geometry">
              <Array as="points" />
            </mxGeometry>
          </mxCell>
        </UserObject>
        <UserObject label="" lucidchartObjectId="pngp9cNxysof" id="li2oKDahV1QLZ2siG3hr-24">
          <mxCell style="html=1;jettySize=18;whiteSpace=wrap;fontSize=13;strokeColor=#5E5E5E;strokeWidth=1.5;rounded=1;arcSize=12;edgeStyle=orthogonalEdgeStyle;startArrow=none;endArrow=block;endFill=1;exitX=-0.003;exitY=0.5;exitPerimeter=0;entryX=0.5;entryY=1.024;entryPerimeter=0;" edge="1" parent="WIyWlLk6GJQsqaUBKTNV-1" source="li2oKDahV1QLZ2siG3hr-22">
            <mxGeometry width="100" height="100" relative="1" as="geometry">
              <Array as="points" />
              <mxPoint x="-1766.5" y="856.0799999999999" as="targetPoint" />
            </mxGeometry>
          </mxCell>
        </UserObject>
        <mxCell id="li2oKDahV1QLZ2siG3hr-25" value="`" style="text;html=1;resizable=0;labelBackgroundColor=default;align=center;verticalAlign=middle;fontStyle=1;fontColor=#333333;fontSize=13.3;" vertex="1" parent="li2oKDahV1QLZ2siG3hr-24">
          <mxGeometry relative="1" as="geometry" />
        </mxCell>
        <UserObject label="" lucidchartObjectId="GngptcE42bYY" id="li2oKDahV1QLZ2siG3hr-26">
          <mxCell style="html=1;jettySize=18;whiteSpace=wrap;fontSize=13;strokeColor=#5E5E5E;strokeWidth=1.5;rounded=1;arcSize=12;edgeStyle=orthogonalEdgeStyle;startArrow=none;endArrow=block;endFill=1;exitX=0.5;exitY=-0.024;exitPerimeter=0;" edge="1" parent="WIyWlLk6GJQsqaUBKTNV-1" target="li2oKDahV1QLZ2siG3hr-1">
            <mxGeometry width="100" height="100" relative="1" as="geometry">
              <Array as="points">
                <mxPoint x="-1766" y="638" />
              </Array>
              <mxPoint x="-1766.5" y="808.9200000000001" as="sourcePoint" />
            </mxGeometry>
          </mxCell>
        </UserObject>
        <UserObject label="Generar el tiempo de servicio, se entiende como el tiempo desde que paga hasta que sale con su almuerzo" lucidchartObjectId="VigpPHDziVR4" id="li2oKDahV1QLZ2siG3hr-31">
          <mxCell style="html=1;overflow=block;blockSpacing=1;whiteSpace=wrap;fontSize=16;fontColor=default;align=center;spacing=3.8;strokeColor=#5e5e5e;strokeOpacity=100;rounded=1;absoluteArcSize=1;arcSize=9;strokeWidth=2.3;" vertex="1" parent="WIyWlLk6GJQsqaUBKTNV-1">
            <mxGeometry x="-1460" y="1570" width="784" height="65" as="geometry" />
          </mxCell>
        </UserObject>
        <UserObject label="Tiempo fin i = Tiempo inicio i + Tiempo de servicio" lucidchartObjectId="-jgpNVMEJ9fi" id="li2oKDahV1QLZ2siG3hr-32">
          <mxCell style="html=1;overflow=block;blockSpacing=1;whiteSpace=wrap;fontSize=16;fontColor=default;align=center;spacing=3.8;strokeColor=#5e5e5e;strokeOpacity=100;rounded=1;absoluteArcSize=1;arcSize=9;strokeWidth=2.3;" vertex="1" parent="WIyWlLk6GJQsqaUBKTNV-1">
            <mxGeometry x="-1224" y="1760" width="367" height="45" as="geometry" />
          </mxCell>
        </UserObject>
        <UserObject label="Caja ocupada Tiempo inicio i = Tiempo fin (i-2)" lucidchartObjectId="CdgpO5QFK6Hf" id="li2oKDahV1QLZ2siG3hr-33">
          <mxCell style="html=1;overflow=block;blockSpacing=1;whiteSpace=wrap;fontSize=16;fontColor=default;align=center;spacing=3.8;strokeColor=#5e5e5e;strokeOpacity=100;rounded=1;absoluteArcSize=1;arcSize=9;strokeWidth=2.3;" vertex="1" parent="WIyWlLk6GJQsqaUBKTNV-1">
            <mxGeometry x="-570" y="1160" width="367" height="45" as="geometry" />
          </mxCell>
        </UserObject>
        <mxCell id="li2oKDahV1QLZ2siG3hr-38" style="edgeStyle=orthogonalEdgeStyle;rounded=0;orthogonalLoop=1;jettySize=auto;html=1;exitX=0;exitY=0.5;exitDx=0;exitDy=0;entryX=0.422;entryY=0.043;entryDx=0;entryDy=0;entryPerimeter=0;" edge="1" parent="WIyWlLk6GJQsqaUBKTNV-1" source="li2oKDahV1QLZ2siG3hr-34" target="li2oKDahV1QLZ2siG3hr-36">
          <mxGeometry relative="1" as="geometry" />
        </mxCell>
        <mxCell id="li2oKDahV1QLZ2siG3hr-39" value="&lt;span style=&quot;font-size: 16px;&quot;&gt;&lt;b&gt;SI&lt;/b&gt;&lt;/span&gt;" style="edgeLabel;html=1;align=center;verticalAlign=middle;resizable=0;points=[];" vertex="1" connectable="0" parent="li2oKDahV1QLZ2siG3hr-38">
          <mxGeometry x="0.1296" y="4" relative="1" as="geometry">
            <mxPoint y="1" as="offset" />
          </mxGeometry>
        </mxCell>
        <mxCell id="li2oKDahV1QLZ2siG3hr-43" style="edgeStyle=orthogonalEdgeStyle;rounded=0;orthogonalLoop=1;jettySize=auto;html=1;exitX=1;exitY=0.5;exitDx=0;exitDy=0;entryX=0.597;entryY=-0.087;entryDx=0;entryDy=0;entryPerimeter=0;fontSize=16;" edge="1" parent="WIyWlLk6GJQsqaUBKTNV-1" source="li2oKDahV1QLZ2siG3hr-34" target="li2oKDahV1QLZ2siG3hr-33">
          <mxGeometry relative="1" as="geometry" />
        </mxCell>
        <mxCell id="li2oKDahV1QLZ2siG3hr-44" value="&lt;b&gt;NO&lt;br&gt;&lt;/b&gt;" style="edgeLabel;html=1;align=center;verticalAlign=middle;resizable=0;points=[];fontSize=16;" vertex="1" connectable="0" parent="li2oKDahV1QLZ2siG3hr-43">
          <mxGeometry x="-0.3493" y="2" relative="1" as="geometry">
            <mxPoint as="offset" />
          </mxGeometry>
        </mxCell>
        <mxCell id="li2oKDahV1QLZ2siG3hr-34" value="&lt;span style=&quot;color: rgb(51, 51, 51); font-size: 17px;&quot;&gt;Es mayor el tiempo de llegada i que tiempo fin(i-2)&lt;/span&gt;" style="rhombus;whiteSpace=wrap;html=1;" vertex="1" parent="WIyWlLk6GJQsqaUBKTNV-1">
          <mxGeometry x="-810" y="1030" width="436" height="80" as="geometry" />
        </mxCell>
        <UserObject label="Cajero libre, Tiempo inicio i = Tiempo llegada i" lucidchartObjectId="_egp2xHE6SLR" id="li2oKDahV1QLZ2siG3hr-36">
          <mxCell style="html=1;overflow=block;blockSpacing=1;whiteSpace=wrap;fontSize=16;fontColor=default;align=center;spacing=3.8;strokeColor=#5e5e5e;strokeOpacity=100;rounded=1;absoluteArcSize=1;arcSize=9;strokeWidth=2.3;" vertex="1" parent="WIyWlLk6GJQsqaUBKTNV-1">
            <mxGeometry x="-1130" y="1169" width="495" height="46" as="geometry" />
          </mxCell>
        </UserObject>
        <mxCell id="li2oKDahV1QLZ2siG3hr-49" value="" style="endArrow=classic;html=1;rounded=0;fontSize=16;entryX=0.5;entryY=0;entryDx=0;entryDy=0;" edge="1" parent="WIyWlLk6GJQsqaUBKTNV-1" target="li2oKDahV1QLZ2siG3hr-15">
          <mxGeometry width="50" height="50" relative="1" as="geometry">
            <mxPoint x="-920" y="1220" as="sourcePoint" />
            <mxPoint x="-1030" y="1360" as="targetPoint" />
            <Array as="points">
              <mxPoint x="-920" y="1320" />
              <mxPoint x="-1035" y="1320" />
            </Array>
          </mxGeometry>
        </mxCell>
        <mxCell id="li2oKDahV1QLZ2siG3hr-50" value="" style="endArrow=none;html=1;rounded=0;fontSize=16;entryX=0.602;entryY=1.017;entryDx=0;entryDy=0;entryPerimeter=0;" edge="1" parent="WIyWlLk6GJQsqaUBKTNV-1" target="li2oKDahV1QLZ2siG3hr-33">
          <mxGeometry width="50" height="50" relative="1" as="geometry">
            <mxPoint x="-920" y="1320" as="sourcePoint" />
            <mxPoint x="-670" y="1240" as="targetPoint" />
            <Array as="points">
              <mxPoint x="-349" y="1320" />
            </Array>
          </mxGeometry>
        </mxCell>
        <mxCell id="li2oKDahV1QLZ2siG3hr-51" value="Siguiente estudiante" style="rounded=1;whiteSpace=wrap;html=1;fontSize=16;" vertex="1" parent="WIyWlLk6GJQsqaUBKTNV-1">
          <mxGeometry x="-1930" y="820" width="320" height="35" as="geometry" />
        </mxCell>
      </root>
    </mxGraphModel>
  </diagram>
</mxfile>
